<svg xmlns="http://www.w3.org/2000/svg" width="27.17" height="32.512" viewBox="0 0 27.17 32.512">
  <g id="documento" transform="translate(-10.45 -7.54)">
    <path id="Path_1091" data-name="Path 1091" d="M37.62,29.965,37.565,13.82v-.074L31.79,7.6l-.055-.055h-17.7a3.6,3.6,0,0,0-3.586,3.586v25.34a3.6,3.6,0,0,0,3.586,3.586H34.043a3.6,3.6,0,0,0,3.577-3.586Zm-2.758-16.55H32.425V10.758Zm1.2,16.495h0v6.556a2,2,0,0,1-2,2H14.036a2,2,0,0,1-2-2V11.126a2,2,0,0,1,2-2h16.55v5.195a.919.919,0,0,0,.919.919H36Z" fill="#0b72bb"/>
    <path id="Path_1092" data-name="Path 1092" d="M31.683,20.25H17.44a.8.8,0,1,0,0,1.591H31.683a.8.8,0,1,0,0-1.591Z" transform="translate(-0.499 -1.024)" fill="#0b72bb"/>
    <path id="Path_1093" data-name="Path 1093" d="M31.683,23.9H17.44a.8.8,0,1,0,0,1.591H31.683a.8.8,0,1,0,0-1.591Z" transform="translate(-0.499 -1.318)" fill="#0b72bb"/>
    <path id="Path_1094" data-name="Path 1094" d="M31.683,27.55H17.44a.8.8,0,1,0,0,1.591H31.683a.8.8,0,1,0,0-1.591Z" transform="translate(-0.499 -1.612)" fill="#0b72bb"/>
    <path id="Path_1095" data-name="Path 1095" d="M31.683,31.21H17.44a.8.8,0,0,0,0,1.591H31.683a.8.8,0,1,0,0-1.591Z" transform="translate(-0.499 -1.907)" fill="#0b72bb"/>
  </g>
</svg>
