<svg xmlns="http://www.w3.org/2000/svg" width="82.406" height="86.5" viewBox="0 0 82.406 86.5">
  <g id="genero_2_" data-name="genero (2)" transform="translate(-4.596 -3.586)">
    <path id="Path_1086" data-name="Path 1086" d="M24.675,36.613a15.221,15.221,0,0,0,15.161-14.9,12.285,12.285,0,0,0-.679-11.206,7.071,7.071,0,0,0-7.511-3.076A13.983,13.983,0,0,0,17.064,4.493C5.559,9.067,8.975,20.273,9.514,21.871A15.261,15.261,0,0,0,24.675,36.613Zm5.813-24.929a29.763,29.763,0,0,0,5.993,9.328v.14a2.2,2.2,0,0,1,0,.3,11.785,11.785,0,0,1-23.531.939A32.479,32.479,0,0,0,30.488,11.684Z" transform="translate(4.019 0)" fill="#fff"/>
    <path id="Path_1087" data-name="Path 1087" d="M55.314,31.47l-.24-.12-.22.16a16.859,16.859,0,0,1-9.069,2.856A17.3,17.3,0,0,1,36.8,31.51l-.22-.16-.24.12c-11.206,5.553-15.8,20.754-15.081,22.891v.14h.12a46.682,46.682,0,0,0,24.409,7.89,43.745,43.745,0,0,0,24.469-7.77h.12v-.14C71.134,52.224,66.54,37.023,55.314,31.47ZM67.019,52.723a40.709,40.709,0,0,1-21.233,6.292,44.764,44.764,0,0,1-21.233-6.392c.679-3.416,4.434-12.964,11.845-17.478a20.454,20.454,0,0,0,9.388,2.5,19.755,19.755,0,0,0,9.408-2.477C62.6,39.779,66.34,49.308,67.019,52.723Z" transform="translate(16.547 27.695)" fill="#fff"/>
    <path id="Path_1088" data-name="Path 1088" d="M23.269,47.14l-.739.759,13.583.28a15.141,15.141,0,0,0,16.659,0l13.543-.28-.659-.739A24.429,24.429,0,0,1,60.7,29.922a16.38,16.38,0,0,0-4.175-12.6A13.982,13.982,0,0,0,46.28,12.683,11.985,11.985,0,0,0,37.591,16l-.36.32h-.2A8.29,8.29,0,0,0,30.92,18.8c-2.3,2.417-3.216,6.332-2.757,11.665A22.072,22.072,0,0,1,23.269,47.14Zm9.368-11.645a11.825,11.825,0,0,1,6.672-10.607A28.524,28.524,0,0,0,56.228,35.555a11.805,11.805,0,0,1-23.61,0Z" transform="translate(17.89 9.068)" fill="#fff"/>
    <path id="Path_1089" data-name="Path 1089" d="M43.2,48.3a1.718,1.718,0,0,0,.859-2.217,1.7,1.7,0,0,0-2.237-.879h-.14a39.77,39.77,0,0,1-12.3,2.137A44.744,44.744,0,0,1,8.06,41.033c.679-3.416,4.434-12.964,11.845-17.478a20.514,20.514,0,0,0,9.468,2.5,19.8,19.8,0,0,0,9.408-2.477,15.82,15.82,0,0,1,3.536,3.036,1.678,1.678,0,0,0,2.277.16h0a1.758,1.758,0,0,0,.16-2.437,24.789,24.789,0,0,0-5.993-4.514l-.24-.12-.22.16a16.859,16.859,0,0,1-8.929,2.816A17.3,17.3,0,0,1,20.3,19.82l-.22-.16-.24.12C8.56,25.333,3.965,40.554,4.664,42.671v.14h.12a46.7,46.7,0,0,0,24.589,7.91,44.324,44.324,0,0,0,13.144-2.177q.345-.1.679-.24Z" transform="translate(0 16.034)" fill="#fff"/>
  </g>
</svg>
