<svg xmlns="http://www.w3.org/2000/svg" width="32.536" height="34.152" viewBox="0 0 32.536 34.152">
  <g id="genero_1_" data-name="genero (1)" transform="translate(-4.596 -3.586)">
    <path id="Path_1073" data-name="Path 1073" d="M14.962,16.626a6.01,6.01,0,0,0,5.986-5.883,4.85,4.85,0,0,0-.268-4.424A2.792,2.792,0,0,0,17.714,5.1a5.521,5.521,0,0,0-5.757-1.159c-4.543,1.806-3.194,6.23-2.981,6.861a6.025,6.025,0,0,0,5.986,5.82Zm2.295-9.842a11.751,11.751,0,0,0,2.366,3.683v.055a.868.868,0,0,1,0,.118,4.653,4.653,0,0,1-9.29.371,12.824,12.824,0,0,0,6.924-4.227Z" transform="translate(-0.852)" fill="#0b72bb"/>
    <path id="Path_1074" data-name="Path 1074" d="M34.659,31.4l-.095-.047-.087.063a6.656,6.656,0,0,1-3.58,1.128,6.83,6.83,0,0,1-3.549-1.128l-.087-.063-.095.047c-4.424,2.192-6.238,8.194-5.954,9.038v.055h.047A18.431,18.431,0,0,0,30.9,43.606a17.272,17.272,0,0,0,9.661-3.068h.047v-.055C40.905,39.591,39.091,33.59,34.659,31.4Zm4.622,8.391A16.073,16.073,0,0,1,30.9,42.273a17.674,17.674,0,0,1-8.383-2.524c.268-1.349,1.751-5.118,4.677-6.9a8.076,8.076,0,0,0,3.707.986,7.8,7.8,0,0,0,3.715-.978C37.537,34.678,39.012,38.44,39.28,39.789Z" transform="translate(-3.506 -5.868)" fill="#0b72bb"/>
    <path id="Path_1075" data-name="Path 1075" d="M22.822,26.284l-.292.3,5.363.11a5.978,5.978,0,0,0,6.577,0l5.347-.11-.26-.292A9.645,9.645,0,0,1,37.6,19.485a6.467,6.467,0,0,0-1.648-4.976,5.521,5.521,0,0,0-4.046-1.83,4.732,4.732,0,0,0-3.431,1.309l-.142.126h-.079a3.273,3.273,0,0,0-2.413.978c-.907.954-1.27,2.5-1.088,4.606a8.715,8.715,0,0,1-1.932,6.585Zm3.7-4.6A4.669,4.669,0,0,1,29.155,17.5a11.262,11.262,0,0,0,6.68,4.211,4.661,4.661,0,0,1-9.322,0Z" transform="translate(-3.79 -1.921)" fill="#0b72bb"/>
    <path id="Path_1076" data-name="Path 1076" d="M19.836,30.969a.678.678,0,0,0,.339-.875.67.67,0,0,0-.883-.347h-.055a15.7,15.7,0,0,1-4.858.844A17.666,17.666,0,0,1,5.963,28.1c.268-1.349,1.751-5.118,4.677-6.9a8.1,8.1,0,0,0,3.738.986,7.816,7.816,0,0,0,3.715-.978,6.246,6.246,0,0,1,1.4,1.2.662.662,0,0,0,.9.063h0a.694.694,0,0,0,.063-.962,9.787,9.787,0,0,0-2.366-1.782l-.095-.047-.087.063a6.656,6.656,0,0,1-3.525,1.112,6.83,6.83,0,0,1-3.58-1.128l-.087-.063-.095.047c-4.456,2.192-6.27,8.2-5.994,9.038V28.8H4.67a18.439,18.439,0,0,0,9.708,3.123,17.5,17.5,0,0,0,5.189-.86q.136-.041.268-.095Z" transform="translate(0 -3.397)" fill="#0b72bb"/>
  </g>
</svg>
