<svg id="servicios" xmlns="http://www.w3.org/2000/svg" width="98.266" height="83.261" viewBox="0 0 98.266 83.261">
  <path id="Path_119" data-name="Path 119" d="M102.252,14.1H78.973v3.978h21.3V75.444c0,2.567-1.668,4.928-3.619,4.928H13.7c-1.976-.1-3.619-2.361-3.619-4.928V18.081H21.532V14.1H8.109a1.976,1.976,0,0,0-1.976,1.976V75.444a8.341,8.341,0,0,0,7.7,8.906H96.657a8.341,8.341,0,0,0,7.7-8.906V16.1a1.976,1.976,0,0,0-2.1-2Z" transform="translate(-6.112 -1.09)" fill="#fff"/>
  <rect id="Rectangle_21" data-name="Rectangle 21" width="33.725" height="32.955" rx="2.01" transform="translate(49.864 31.621)" fill="#fff"/>
  <rect id="Rectangle_22" data-name="Rectangle 22" width="19.378" height="18.916" rx="1.15" transform="translate(47.375 8.11)" fill="#fff"/>
  <rect id="Rectangle_23" data-name="Rectangle 23" width="16.863" height="16.478" rx="1" transform="translate(25.533 0)" fill="#fff"/>
  <rect id="Rectangle_24" data-name="Rectangle 24" width="8.444" height="8.239" rx="0.5" transform="translate(21.324 22.92)" fill="#fff"/>
  <rect id="Rectangle_25" data-name="Rectangle 25" width="11.216" height="10.959" rx="0.67" transform="translate(32.386 36.24)" fill="#fff"/>
  <rect id="Rectangle_26" data-name="Rectangle 26" width="7.366" height="7.186" rx="0.44" transform="translate(21.529 50.896)" fill="#fff"/>
</svg>
