<svg id="Group_126" data-name="Group 126" xmlns="http://www.w3.org/2000/svg" width="100" height="89.44" viewBox="0 0 100 89.44">
  <path id="Path_202" data-name="Path 202" d="M116.186,419.418l-2.681-1a9.213,9.213,0,0,0,0-1.618l2.681-1.043a.3.3,0,0,0,.2-.376l-.021-.053-1.931-4.128a.367.367,0,0,0-.453-.19l-2.586,1.019a8.79,8.79,0,0,0-1.228-1.128l1.112-2.511a.331.331,0,0,0-.2-.424l-4.426-1.706a.374.374,0,0,0-.453.194l-1.112,2.49a11.148,11.148,0,0,0-1.724,0l-1.112-2.49a.345.345,0,0,0-.444-.174l-.013,0-4.422,1.7a.338.338,0,0,0-.207.425l1.112,2.49a10.122,10.122,0,0,0-1.2,1.152l-2.7-1.023a.329.329,0,0,0-.431.117l-.026.053-1.814,4.128a.314.314,0,0,0,.172.425l.009,0,2.681,1.019a9.25,9.25,0,0,0,0,1.621l-2.681,1.043a.292.292,0,0,0-.2.372l.022.053,1.9,4.128a.248.248,0,0,0,.185.17.293.293,0,0,0,.272,0l2.676-1.019a8.977,8.977,0,0,0,1.224,1.128l-1.112,2.511a.336.336,0,0,0,.207.424L102,428.915a.374.374,0,0,0,.453-.194l1.112-2.491a11.112,11.112,0,0,0,1.724,0l1.112,2.491a.306.306,0,0,0,.207.17.294.294,0,0,0,.271,0l4.4-1.7a.337.337,0,0,0,.207-.425l-1.112-2.515a8.342,8.342,0,0,0,1.2-1.128l2.7,1.023a.328.328,0,0,0,.431-.117l.026-.053,1.836-4.128a.362.362,0,0,0-.384-.429Zm-13.981,2.77a4.838,4.838,0,0,1-2.879-6.388,5.458,5.458,0,0,1,6.943-2.7,4.814,4.814,0,0,1,2.879,6.384A5.462,5.462,0,0,1,102.2,422.187Z" transform="translate(-53.575 -399.783)" fill="#fff"/>
  <path id="Path_203" data-name="Path 203" d="M100.974,412.636l-1-.873a2.657,2.657,0,0,0,.3-.7h1.314a.179.179,0,0,0,.159-.174v-2.127a.163.163,0,0,0-.159-.129h-1.362a6.15,6.15,0,0,0-.319-.68l.931-.938v-.21L99.2,405.379a.165.165,0,0,0-.224,0v0l-.978.873a3.713,3.713,0,0,0-.75-.259V404.72a.176.176,0,0,0-.2-.065H94.777a.178.178,0,0,0-.181.15l.181,1.447a3.086,3.086,0,0,0-.724.3l-1-.869a.165.165,0,0,0-.224,0v0l-1.543,1.508a.159.159,0,0,0,0,.235l1,.853a2.9,2.9,0,0,0-.293.724H90.626a.155.155,0,0,0-.159.15v2.127h1.474a3.678,3.678,0,0,0,.319.683l-.931.914a.167.167,0,0,0,0,.214l1.633,1.447a.2.2,0,0,0,.228,0l.953-.938a2.872,2.872,0,0,0,.75.279v1.253a.169.169,0,0,0,0,.129H97.16s.181,0,.159-.149v-1.278a4.2,4.2,0,0,0,.728-.3l1,.873a.185.185,0,0,0,.228,0l1.543-1.512a.159.159,0,0,0,.207-.077A.143.143,0,0,0,100.974,412.636Zm-6.6-.978a2.2,2.2,0,0,1-.03-3.251l.03-.028a2.616,2.616,0,0,1,3.517,0,2.2,2.2,0,0,1,.026,3.251l-.026.028A2.642,2.642,0,0,1,94.372,411.658Z" transform="translate(-58.878 -404.646)" fill="#fff"/>
  <path id="Path_204" data-name="Path 204" d="M119.059,420.474h-.116a1.817,1.817,0,0,0-1.655.17,12.661,12.661,0,0,1-6.491,1.916,13.221,13.221,0,0,1-6.581-1.981,1.809,1.809,0,0,0-1.677,0c-9.624,4.472-13.619,16.48-12.778,18.841a1.736,1.736,0,0,0,.59.724,40.743,40.743,0,0,0,20.424,6.154A38.324,38.324,0,0,0,131.2,440.1a1.944,1.944,0,0,0,.543-.748C132.673,436.95,128.678,424.946,119.059,420.474Zm-.728,2.939a14.46,14.46,0,0,1,2.543,1.658l-3.836,4.516L113.2,425.2A16.385,16.385,0,0,0,118.33,423.413Zm-4.4,5.83-3.064,3.513v0l-3.064-3.513,3.133-3.574Zm-10.667-5.83a17.163,17.163,0,0,0,5.15,1.787l-3.836,4.387-3.857-4.516A18.562,18.562,0,0,1,103.263,423.413ZM92.734,438.058a23.78,23.78,0,0,1,6.422-11.475l4.538,5.345a1.316,1.316,0,0,0,.84.384,1.14,1.14,0,0,0,.84-.364l.862-1,2.267,2.616-5.672,8.709A34.073,34.073,0,0,1,92.734,438.058Zm18.153,5.216a31.493,31.493,0,0,1-5.65-.619l5.65-8.685,5.7,8.749a32.687,32.687,0,0,1-5.788.554Zm7.943-1.023-5.719-8.77,2.271-2.616.862,1a1.133,1.133,0,0,0,.84.364h0a1.086,1.086,0,0,0,.836-.384l4.517-5.26a24.116,24.116,0,0,1,6.422,11.584,32.391,32.391,0,0,1-10.119,4.084Z" transform="translate(-61.577 -356.857)" fill="#fff"/>
  <path id="Path_205" data-name="Path 205" d="M105.729,442.8c8.081,0,14.567-9.133,14.567-16.71-.315-7.545-7.09-13.416-15.132-13.116-7.594.279-13.679,5.992-13.981,13.116C91.183,433.662,97.674,442.8,105.729,442.8Zm11.46-16.71v.659c-3.224-1.108-4.538-6.7-4.969-9.514A10.469,10.469,0,0,1,117.188,426.086Zm-22.9,0c0-5.9,5.064-10.694,11.348-10.751a12.014,12.014,0,0,1,3.948.7,15.353,15.353,0,0,1-7.9,9.853,11.22,11.22,0,0,1-7.443,1.152A4.465,4.465,0,0,0,94.29,426.086Zm1.883,3.255a15.333,15.333,0,0,0,6.628-1.553,17.214,17.214,0,0,0,7.762-7.836c.836,3.449,2.655,7.92,6.331,8.859-1.25,5.426-5.926,11.07-11.119,11.07s-9.6-5.345-11.007-10.646A10.912,10.912,0,0,0,96.174,429.34Z" transform="translate(-56.509 -379.349)" fill="#fff"/>
  <path id="Path_206" data-name="Path 206" d="M100.769,429.267l.159.534a3.34,3.34,0,0,1,.181.894h0a5.9,5.9,0,0,1-.75,1.233l-.2.279a1.13,1.13,0,0,0,.181,1.4,8.587,8.587,0,0,0,4.245,2.131h.293a1.236,1.236,0,0,0,1.254-1.209,1.207,1.207,0,0,0-.935-1.132,7.7,7.7,0,0,1-2.271-.917,6.511,6.511,0,0,0,.681-1.193v-.594a5.974,5.974,0,0,0-.25-1.532l-.181-.554a2.993,2.993,0,0,0-.181-.659v-.194a8.838,8.838,0,0,1-.909-3.894c.017-5.078,4.417-9.186,9.831-9.174s9.792,4.14,9.779,9.218a8.756,8.756,0,0,1-.978,3.978l-.384,1.233a4.934,4.934,0,0,0-.271,1.577,2.131,2.131,0,0,0,0,.574v.17a7.757,7.757,0,0,0,.655,1.213,5.928,5.928,0,0,1-1.677.748,1.172,1.172,0,0,0-.806,1.5,1.289,1.289,0,0,0,1.552.772,7.687,7.687,0,0,0,3.517-1.981,1.145,1.145,0,0,0,.159-1.4l-.181-.3c-.159-.234-.612-.938-.75-1.213h0a2.874,2.874,0,0,1,.16-.894c.116-.4.25-.809.319-1.063a11.016,11.016,0,0,0,1.134-4.876c0-6.4-5.525-11.579-12.343-11.579s-12.343,5.183-12.343,11.579a11.512,11.512,0,0,0,1.065,4.767A1.271,1.271,0,0,1,100.769,429.267Z" transform="translate(-29.13 -381.148)" fill="#fff"/>
  <path id="Path_207" data-name="Path 207" d="M121.244,418.642a1.539,1.539,0,0,0-1.383.15,10.436,10.436,0,0,1-5.31,1.577,11.011,11.011,0,0,1-5.4-1.621,1.34,1.34,0,0,0-1.293-.105h0a19.892,19.892,0,0,0-9.214,9.942,26.84,26.84,0,0,1,1.836,2.131,20.8,20.8,0,0,1,4.586-7.092l4.538,4.512a.811.811,0,0,0,.634.279h0a.89.89,0,0,0,.59-.534l3.655-4.937,3.719,4.937a.9.9,0,0,0,.659.364h0a.866.866,0,0,0,.659-.279l4.538-4.512a19.737,19.737,0,0,1,5.353,9.558,28.669,28.669,0,0,1-14.817,4.257,31.8,31.8,0,0,1-11.593-2.6,25.586,25.586,0,0,1,1.383,3.085,33.935,33.935,0,0,0,10.21,1.9,31.342,31.342,0,0,0,16.657-4.941,1.233,1.233,0,0,0,.452-.615C132.476,432.138,129.209,422.346,121.244,418.642Zm-11.188,7.516-3.767-3.768a17.255,17.255,0,0,1,2-1.3,13.622,13.622,0,0,0,4.331,1.488Zm9.076,0L116.5,422.6a13.433,13.433,0,0,0,4.331-1.508,12.308,12.308,0,0,1,2,1.3Z" transform="translate(-31.814 -362.412)" fill="#fff"/>
  <path id="Path_208" data-name="Path 208" d="M112.472,414.463a.842.842,0,0,0-.862-.4.824.824,0,0,0-.707.618c-1.112,4.662-4.4,4.941-7.055,5.151-1.543.13-3.314.255-3.314,1.876,0,4.023,3.474,8.875,7.762,8.875s7.736-4.852,7.736-8.875A30.753,30.753,0,0,0,112.472,414.463ZM108.3,428.982c-3.2,0-6.06-4.063-6.081-7.278a6.086,6.086,0,0,1,1.793-.279,8.282,8.282,0,0,0,7.939-4.557,25.9,25.9,0,0,1,2.271,4.836C114.33,424.918,111.494,428.982,108.3,428.982Z" transform="translate(-25.559 -376.031)" fill="#fff"/>
  <path id="Path_209" data-name="Path 209" d="M114.114,429.5a24.524,24.524,0,0,1,1.862-1.937,19.514,19.514,0,0,0-8.736-8.919h0a1.467,1.467,0,0,0-1.362.15,10.447,10.447,0,0,1-5.31,1.573,10.851,10.851,0,0,1-5.379-1.617,1.571,1.571,0,0,0-1.409,0c-7.986,3.554-11.253,13.346-10.55,15.348a1.354,1.354,0,0,0,.478.6,33.482,33.482,0,0,0,16.769,5.042,30.972,30.972,0,0,0,8.46-1.274,25.28,25.28,0,0,1,1.2-2.9,29.824,29.824,0,0,1-8.029,1.706l4.538-8.515a.829.829,0,0,0-.366-1.088l-1.793-.979,3.767-4.621A19.317,19.317,0,0,1,114.114,429.5Zm-28.457,3.574a19.424,19.424,0,0,1,7.128-11.046l3.767,4.6-1.793.978a.808.808,0,0,0-.366,1.088l4.426,8.515A31.09,31.09,0,0,1,85.657,433.071Zm13.955,1.876-3.267-6.3,1.974-1.063a.851.851,0,0,0,.409-.554.74.74,0,0,0-.112-.679l-4.379-5.26h0a13.976,13.976,0,0,0,5.262,1.557C99.59,426.432,99.612,431.9,99.612,434.947Zm2.75-8.515a.891.891,0,0,0-.159.679.807.807,0,0,0,.431.554l1.952,1.063-3.2,6.388V422.729a13.054,13.054,0,0,0,5.31-1.621h0Z" transform="translate(-83.137 -362.367)" fill="#fff"/>
  <path id="Path_210" data-name="Path 210" d="M87.141,429.792c.931,1.746,4.219,6.938,10.1,6.938s9.076-5.215,10.1-6.938A4.608,4.608,0,0,0,109.9,426.6a5.436,5.436,0,0,0-.457-5.171,5.345,5.345,0,0,0-.815-.748c-1.7-5.879-8.15-9.352-14.416-7.763a11.42,11.42,0,0,0-8.275,7.763,3.5,3.5,0,0,0-.888.809,5.326,5.326,0,0,0-.474,5.155A4.456,4.456,0,0,0,87.141,429.792Zm0-6.813a.956.956,0,0,1,.724-.4h0a.228.228,0,0,0,.272-.166v-.024a9.049,9.049,0,0,1,10.507-6.922,8.818,8.818,0,0,1,7.374,6.922.3.3,0,0,0,.319.21,1.021,1.021,0,0,1,.75.384c.293.384.543,1.193,0,2.915-.25.809-.75,1.767-1.564,1.557a.253.253,0,0,0-.319.145v0c-1.362,3.255-4.426,6.554-8.146,6.554s-6.809-3.32-8.15-6.6a.269.269,0,0,0-.246-.15h0c-.819.279-1.34-.724-1.59-1.532-.431-1.723-.181-2.535.112-2.9Z" transform="translate(-79.877 -380.65)" fill="#fff"/>
</svg>
