<svg id="Group_864" data-name="Group 864" xmlns="http://www.w3.org/2000/svg" width="88.335" height="83.346" viewBox="0 0 88.335 83.346">
  <g id="Group_117" data-name="Group 117">
    <g id="Group_116" data-name="Group 116">
      <path id="Path_176" data-name="Path 176" d="M121.01,325.538a8.559,8.559,0,0,0-11.094,0S94.1,338.686,93.6,339.449h43.661C136.912,338.686,121.01,325.538,121.01,325.538Z" transform="translate(-54.37 -323.497)" fill="#fff"/>
      <path id="Path_177" data-name="Path 177" d="M101.028,343.886a1.151,1.151,0,0,0,1.146-1.159v-8.88a1.154,1.154,0,0,0-1.146-1.159H95.606a2.275,2.275,0,0,0-1.563.65l-6.714,6.839a2.332,2.332,0,0,0-.642,1.575V342.8a1.154,1.154,0,0,0,1.15,1.158Z" transform="translate(-76.253 -294.387)" fill="#fff"/>
      <path id="Path_178" data-name="Path 178" d="M97.287,338.112a11.221,11.221,0,1,0,11.123,11.222h0A11.2,11.2,0,0,0,97.287,338.112Zm0,19.22a8,8,0,1,1,7.931-8,7.96,7.96,0,0,1-7.931,8Z" transform="translate(-77.913 -277.207)" fill="#fff"/>
      <path id="Path_179" data-name="Path 179" d="M108.586,338.112A11.221,11.221,0,1,0,119.7,349.334h0A11.192,11.192,0,0,0,108.586,338.112Zm0,19.22a8,8,0,1,1,7.926-8,7.964,7.964,0,0,1-7.926,8Z" transform="translate(-42.125 -277.207)" fill="#fff"/>
      <path id="Path_180" data-name="Path 180" d="M154.035,362.742H105.781a1.547,1.547,0,0,1-1.542-1.554h0V336.521H91.075a1.546,1.546,0,0,1-1.542-1.555h0v-5.33a1.546,1.546,0,0,1,1.542-1.554h62.618a1.54,1.54,0,0,1,1.538,1.529l.346,31.53a1.546,1.546,0,0,1-1.517,1.576h-.025Zm-46.624-3.109h45.061l-.2-28.422H92.521v2.317h13.235a1.546,1.546,0,0,1,1.542,1.555h0Z" transform="translate(-67.242 -308.976)" fill="#fff"/>
      <path id="Path_181" data-name="Path 181" d="M96,352.108a1.551,1.551,0,0,1-1.542-1.551,1.573,1.573,0,0,1,.142-.65l8.572-19.453a1.536,1.536,0,0,1,2.042-.788,1.564,1.564,0,0,1,.783,2.063h0l-8.572,19.449A1.543,1.543,0,0,1,96,352.108Z" transform="translate(-51.63 -304.393)" fill="#fff"/>
      <path id="Path_182" data-name="Path 182" d="M102.495,352.089a1.546,1.546,0,0,1-1.542-1.551,1.57,1.57,0,0,1,.138-.65l8.572-19.432a1.544,1.544,0,0,1,2.046-.784,1.566,1.566,0,0,1,.779,2.063h0l-8.568,19.423A1.547,1.547,0,0,1,102.495,352.089Z" transform="translate(-31.071 -304.374)" fill="#fff"/>
      <path id="Path_183" data-name="Path 183" d="M98.169,352.108a1.552,1.552,0,0,1-1.546-1.551,1.573,1.573,0,0,1,.142-.65l8.576-19.453a1.537,1.537,0,0,1,2.042-.788,1.571,1.571,0,0,1,.783,2.063h0l-8.572,19.449A1.543,1.543,0,0,1,98.169,352.108Z" transform="translate(-44.785 -304.393)" fill="#fff"/>
      <path id="Path_184" data-name="Path 184" d="M100.336,352.314a1.552,1.552,0,0,1-1.546-1.55,1.571,1.571,0,0,1,.142-.65L107.5,330.66a1.541,1.541,0,1,1,3,.717,1.483,1.483,0,0,1-.192.467l-8.568,19.449A1.547,1.547,0,0,1,100.336,352.314Z" transform="translate(-37.922 -304.599)" fill="#fff"/>
      <path id="Path_185" data-name="Path 185" d="M170.932,371.546h-5.947a1.552,1.552,0,0,1,0-3.1h4.409v-8.277H116.818a1.546,1.546,0,0,1-1.542-1.554V333.873h-13.19L90.46,345.629V363.92a1.55,1.55,0,0,1-1.15,1.509c-.392,0-1.975.741-1.975,1.6,0,1.25,1.746,1.438,2.78,1.438a1.552,1.552,0,0,1,0,3.1c-3.63-.025-5.93-1.763-5.93-4.451a4.821,4.821,0,0,1,3.125-4.2V345.071a1.553,1.553,0,0,1,.463-1.088l12.5-12.747a1.516,1.516,0,0,1,1.1-.467h15.444a1.548,1.548,0,0,1,1.538,1.554h0v24.641h52.575a1.547,1.547,0,0,1,1.542,1.555v11.594A1.546,1.546,0,0,1,170.932,371.546Z" transform="translate(-84.184 -300.465)" fill="#fff"/>
      <path id="Path_186" data-name="Path 186" d="M110.995,342.914H93.713a1.552,1.552,0,0,1,0-3.1h17.282a1.552,1.552,0,0,1,0,3.1Z" transform="translate(-58.874 -271.832)" fill="#fff"/>
    </g>
  </g>
</svg>
