<svg xmlns="http://www.w3.org/2000/svg" width="29.081" height="27.152" viewBox="0 0 29.081 27.152">
  <path id="computadora-videojuego" d="M31.98,6.2H6.9a2,2,0,0,0-2,2V26.35a2,2,0,0,0,2,2h9.074v3.573H12.188a.716.716,0,0,0-.715.715.675.675,0,0,0,.715.715h14.5a.716.716,0,0,0,.715-.715.675.675,0,0,0-.715-.715H22.906V28.35H31.98a2,2,0,0,0,2-2V8.272A2.014,2.014,0,0,0,31.98,6.2ZM21.834,31.994H17.118V28.422h4.716ZM32.552,21.562H30.266a.572.572,0,0,0,0,1.143h2.286v3.787a.578.578,0,0,1-.572.643H6.9a.64.64,0,0,1-.643-.643V22.705H27.55a.572.572,0,0,0,0-1.143H6.186V8.272a.64.64,0,0,1,.643-.643h25.08a.64.64,0,0,1,.643.643Z" transform="translate(-4.9 -6.2)" fill="#0b72bb"/>
</svg>
