<svg xmlns="http://www.w3.org/2000/svg" width="31.281" height="27.016" viewBox="0 0 31.281 27.016">
  <g id="maletin" transform="translate(0 -34.909)">
    <g id="Group_896" data-name="Group 896" transform="translate(0.711 49.839)">
      <g id="Group_895" data-name="Group 895">
        <path id="Path_1077" data-name="Path 1077" d="M40.785,279.273a.672.672,0,0,0-.711.711v9.242a.672.672,0,0,1-.711.711H13.77a.672.672,0,0,1-.711-.711v-9.242a.711.711,0,1,0-1.422,0v9.242a2.1,2.1,0,0,0,2.133,2.133H39.364a2.1,2.1,0,0,0,2.133-2.133v-9.242A.672.672,0,0,0,40.785,279.273Z" transform="translate(-11.637 -279.273)" fill="#0b72bb"/>
      </g>
    </g>
    <g id="Group_898" data-name="Group 898" transform="translate(0 39.886)">
      <g id="Group_897" data-name="Group 897">
        <path id="Path_1078" data-name="Path 1078" d="M29.148,116.364H2.133A2.1,2.1,0,0,0,0,118.5v4.55a2.134,2.134,0,0,0,1.635,2.062L12.8,127.6v2.275a.672.672,0,0,0,.711.711h4.266a.672.672,0,0,0,.711-.711V127.6l11.162-2.488a2.134,2.134,0,0,0,1.635-2.062V118.5A2.1,2.1,0,0,0,29.148,116.364Zm-12.086,12.8H14.219v-2.844h2.844Zm12.8-6.114a.692.692,0,0,1-.569.711l-10.806,2.417v-.569a.672.672,0,0,0-.711-.711H13.508a.672.672,0,0,0-.711.711v.569L1.991,123.758a.692.692,0,0,1-.569-.711V118.5a.672.672,0,0,1,.711-.711H29.148a.672.672,0,0,1,.711.711Z" transform="translate(0 -116.364)" fill="#0b72bb"/>
      </g>
    </g>
    <g id="Group_900" data-name="Group 900" transform="translate(9.953 34.909)">
      <g id="Group_899" data-name="Group 899">
        <path id="Path_1079" data-name="Path 1079" d="M172.151,34.909h-7.109a2.1,2.1,0,0,0-2.133,2.133v.711a.711.711,0,0,0,1.422,0v-.711a.672.672,0,0,1,.711-.711h7.109a.672.672,0,0,1,.711.711v.711a.711.711,0,0,0,1.422,0v-.711A2.1,2.1,0,0,0,172.151,34.909Z" transform="translate(-162.909 -34.909)" fill="#0b72bb"/>
      </g>
    </g>
  </g>
</svg>
