<svg xmlns="http://www.w3.org/2000/svg" width="65.057" height="74.059" viewBox="0 0 65.057 74.059">
  <g id="mail-1_1_" data-name="mail-1 (1)" transform="translate(-8.081 -3.118)">
    <path id="Path_1090" data-name="Path 1090" d="M73.137,30.132a1.915,1.915,0,0,0-.176-.861A1.757,1.757,0,0,0,72.4,27.83l-6.291-5.272V11.5c0-.967-.861-1.072-1.757-1.072H50.906L43.877,4.264a4.956,4.956,0,0,0-6.52.158l-7.029,6.01H16.989c-.967,0-1.845.105-1.845,1.072V22.488L8.888,27.76a1.757,1.757,0,0,0-.492.808,1.757,1.757,0,0,0-.228,1.546s0,.105,0,.176V70.147c0,3.181,1.863,7.029,5.044,7.029H68.146c3.181,0,4.991-3.884,4.991-7.029Zm-3.919-.492-3.111,2.6V26.969ZM39.694,6.953a1.441,1.441,0,0,1,2,.176l3.743,3.3h-9.49ZM62.54,13.982V35.193L41.891,52.5a1.511,1.511,0,0,1-2.056,0L18.746,34.824V13.947ZM15.091,27.11v4.8l-2.882-2.39Zm-3.515,6.414L31.03,49.815,11.629,66.07ZM68.146,73.7H13.211c-1.072,0-1.406-1.546-1.459-2.654L33.86,52.275,37.6,55.3a4.921,4.921,0,0,0,3.251,1.177,5.167,5.167,0,0,0,3.269-1.248l3.515-2.97,22.02,18.821C69.569,72.186,69.2,73.7,68.146,73.7Zm1.476-7.521L50.291,50.008,69.622,33.84Z" transform="translate(0 0)" fill="#fff"/>
    <line id="Line_7" data-name="Line 7" x2="28.399" transform="translate(26.408 23.314)" fill="none" stroke="#fff" stroke-linecap="round" stroke-linejoin="round" stroke-width="3"/>
    <line id="Line_8" data-name="Line 8" x2="28.399" transform="translate(26.408 30.677)" fill="none" stroke="#fff" stroke-linecap="round" stroke-linejoin="round" stroke-width="3"/>
    <line id="Line_9" data-name="Line 9" x2="0.721" transform="translate(48.499 38.04)" fill="none" stroke="#fff" stroke-linecap="round" stroke-linejoin="round" stroke-width="3"/>
    <line id="Line_10" data-name="Line 10" x2="15.799" transform="translate(26.408 38.04)" fill="none" stroke="#fff" stroke-linecap="round" stroke-linejoin="round" stroke-width="3"/>
  </g>
</svg>
