<svg id="Group_120" data-name="Group 120" xmlns="http://www.w3.org/2000/svg" width="91.438" height="83.119" viewBox="0 0 91.438 83.119">
  <g id="Group_119" data-name="Group 119">
    <path id="Path_187" data-name="Path 187" d="M115.97,576.576a1.792,1.792,0,1,0,0-3.584H92.056a1.792,1.792,0,1,0,0,3.584Z" transform="translate(-63.537 -555.115)" fill="#fff"/>
    <path id="Path_188" data-name="Path 188" d="M87.529,577.171a1.793,1.793,0,0,0,1.794,1.794h35.4a1.792,1.792,0,0,0,.4-3.563,1.571,1.571,0,0,0-.4,0h-35.4a1.77,1.77,0,0,0-1.794,1.748Z" transform="translate(-72.287 -547.438)" fill="#fff"/>
    <path id="Path_189" data-name="Path 189" d="M89.475,581.36h35.4a1.792,1.792,0,0,0,.4-3.563,2.117,2.117,0,0,0-.4,0h-35.4a1.792,1.792,0,1,0-.4,3.563A2.116,2.116,0,0,0,89.475,581.36Z" transform="translate(-72.439 -539.767)" fill="#fff"/>
    <path id="Path_190" data-name="Path 190" d="M149.719,643.008a5.351,5.351,0,0,1-5.352,5.332H92.9a5.351,5.351,0,0,1-5.353-5.332V588.03H99.408a2.217,2.217,0,0,0,2.059-2.08V572.409h42.9a5.351,5.351,0,0,1,5.352,5.331v22.124l3.454-2.588h.2V577.74a9.028,9.028,0,0,0-9-9h-45.4L84.1,584.576v.114l-.2,58.319a9,9,0,0,0,9,8.848h51.462a9.027,9.027,0,0,0,9-8.848v-16c-1.218.757-2.458,1.5-3.651,2.214ZM97.354,576.282v7.583H90.4Z" transform="translate(-83.901 -568.737)" fill="#fff"/>
    <path id="Path_191" data-name="Path 191" d="M120.627,573.845l-3.189,4.139c-1.281,1.592-1.991,3.65-.4,4.911l.378.307a7.387,7.387,0,0,1-9.314.6s-8.23,4.425-6.638,12.768a16.193,16.193,0,0,1-2.7,10.86l8.848-11.259a2.541,2.541,0,0,1-.189-3.592c.059-.067.122-.13.189-.193a3.142,3.142,0,0,1,4.911,3.895,2.962,2.962,0,0,1-3.693.887l-9.071,11.062c2.609-2.017,7.054-4.911,10.041-5.021,8.453-.311,11.062-9.268,11.062-9.268a7.4,7.4,0,0,1-1.546-9.21l.374.29c1.6,1.26,3.584.243,4.869-1.374l3.185-4.025Z" transform="translate(-36.31 -552.385)" fill="#fff"/>
    <path id="Path_192" data-name="Path 192" d="M96.558,600.273c0,2.1.71,3.542,2.012,3.941a2.467,2.467,0,0,0,.6.109c.823,0,1.861-.42,2.878-2.209a57.338,57.338,0,0,0,2.765-5.4l.664-1.416.113.752c0,.638.374,2.609,1.924,3.159q1.657.6,3.319-1.525l3.029-3.781a2.1,2.1,0,0,1,.265-.311l.113.2a18.018,18.018,0,0,0,4.138,5.44,7.255,7.255,0,0,0,5.042,2.038c4.424-.2,8.184-5.239,11.062-8.848.353-.466.664-.912.975-1.281a1.775,1.775,0,0,0,0-2.214,1.307,1.307,0,0,0-1.849-.017,1.8,1.8,0,0,0-.143.168l-1.017,1.332c-2.214,3.05-5.756,7.655-8.852,7.785a4.806,4.806,0,0,1-3.231-1.37,15.376,15.376,0,0,1-3.407-4.428,3.329,3.329,0,0,0-2.1-1.924c-1.437-.265-2.454,1.037-2.832,1.529l-3.054,3.89a1.888,1.888,0,0,1-.265.315v-.378l-.752-5.067a1.531,1.531,0,0,0-1.084-1.286,1.332,1.332,0,0,0-1.483.664,52.658,52.658,0,0,0-3.164,5.159,49.575,49.575,0,0,1-2.588,5.067,2.406,2.406,0,0,1-.311.462,4.073,4.073,0,0,1,0-.555,56.087,56.087,0,0,1,1.55-10.8c.4-1.97.819-3.979,1.13-6a3.09,3.09,0,0,0-.155-1.655,2.217,2.217,0,0,0-2.945-.979c-6.3,2.681-10.73,11.575-11.944,14.23a1.766,1.766,0,0,0,.6,2.21,1.371,1.371,0,0,0,1.857-.559,1.479,1.479,0,0,0,.067-.147c2.08-4.6,5.6-10.045,9.491-12.238-.244,1.487-.55,2.987-.84,4.429A56.826,56.826,0,0,0,96.558,600.273Z" transform="translate(-74.657 -530.695)" fill="#fff"/>
  </g>
</svg>
